<svg width="20" height="20" viewBox="0 0 20 20" fill="none" xmlns="http://www.w3.org/2000/svg">
<g clip-path="url(#clip0_4076_39054)">
<path d="M9.21846 2.11209C9.48692 1.38657 10.5131 1.38657 10.7815 2.11209L12.5679 6.93972C12.6523 7.16782 12.8322 7.34767 13.0603 7.43207L17.8879 9.21846C18.6134 9.48692 18.6134 10.5131 17.8879 10.7815L13.0603 12.5679C12.8322 12.6523 12.6523 12.8322 12.5679 13.0603L10.7815 17.8879C10.5131 18.6134 9.48692 18.6134 9.21846 17.8879L7.43207 13.0603C7.34767 12.8322 7.16782 12.6523 6.93972 12.5679L2.11209 10.7815C1.38657 10.5131 1.38657 9.48692 2.11209 9.21846L6.93972 7.43207C7.16782 7.34767 7.34767 7.16782 7.43207 6.93972L9.21846 2.11209Z" fill="white"/>
<path d="M16.2759 1.05604C16.4101 0.693286 16.9232 0.693286 17.0574 1.05604L17.567 2.43303L18.944 2.94256C19.3067 3.07679 19.3067 3.58987 18.944 3.7241L17.567 4.23364L17.0574 5.61062C16.9232 5.97338 16.4101 5.97338 16.2759 5.61062L15.7664 4.23364L14.3894 3.7241C14.0266 3.58987 14.0266 3.07679 14.3894 2.94256L15.7664 2.43303L16.2759 1.05604Z" fill="white"/>
</g>
<defs>
<clipPath id="clip0_4076_39054">
<rect width="20" height="20" fill="white"/>
</clipPath>
</defs>
</svg>
