<svg width="36" height="36" viewBox="0 0 36 36" fill="none" xmlns="http://www.w3.org/2000/svg">
<g clip-path="url(#clip0_4079_39056)">
<path d="M16.5932 3.80176C17.0765 2.49583 18.9235 2.49583 19.4068 3.80176L22.6223 12.4915C22.7742 12.9021 23.0979 13.2258 23.5085 13.3777L32.1982 16.5932C33.5042 17.0765 33.5042 18.9235 32.1982 19.4068L23.5085 22.6223C23.0979 22.7742 22.7742 23.0979 22.6223 23.5085L19.4068 32.1982C18.9235 33.5042 17.0765 33.5042 16.5932 32.1982L13.3777 23.5085C13.2258 23.0979 12.9021 22.7742 12.4915 22.6223L3.80176 19.4068C2.49583 18.9235 2.49583 17.0765 3.80176 16.5932L12.4915 13.3777C12.9021 13.2258 13.2258 12.9021 13.3777 12.4915L16.5932 3.80176Z" fill="url(#paint0_linear_4079_39056)"/>
<path d="M29.2966 1.90088C29.5382 1.24792 30.4618 1.24791 30.7034 1.90088L31.6205 4.37946L34.0991 5.29661C34.7521 5.53823 34.7521 6.46177 34.0991 6.70339L31.6205 7.62054L30.7034 10.0991C30.4618 10.7521 29.5382 10.7521 29.2966 10.0991L28.3795 7.62054L25.9009 6.70339C25.2479 6.46177 25.2479 5.53823 25.9009 5.29661L28.3795 4.37946L29.2966 1.90088Z" fill="url(#paint1_linear_4079_39056)"/>
</g>
<defs>
<linearGradient id="paint0_linear_4079_39056" x1="18" y1="0" x2="18" y2="36" gradientUnits="userSpaceOnUse">
<stop stop-color="#944FB3"/>
<stop offset="1" stop-color="#027887"/>
</linearGradient>
<linearGradient id="paint1_linear_4079_39056" x1="18" y1="0" x2="18" y2="36" gradientUnits="userSpaceOnUse">
<stop stop-color="#944FB3"/>
<stop offset="1" stop-color="#027887"/>
</linearGradient>
<clipPath id="clip0_4079_39056">
<rect width="36" height="36" fill="white"/>
</clipPath>
</defs>
</svg>
